HIERARCHY
ROOT Hips
{
	OFFSET 0.00 0.00 0.00
	CHANNELS 6 Xposition Yposition Zposition Xrotation Yrotation Zrotation
	JOINT RightUpLeg
	{
		OFFSET -3.76699 0.00000 0.00000
		CHANNELS 3 Xrotation Yrotation Zrotation
		JOINT RightLeg
		{
			OFFSET 0.00000 -18.01768 0.00000
			CHANNELS 3 Xrotation Yrotation Zrotation
			JOINT RightFoot
			{
				OFFSET 0.00000 -16.88108 0.00000
				CHANNELS 3 Xrotation Yrotation Zrotation
				JOINT RightToeBase
				{
					OFFSET 0.00000 -1.49359 5.57418
					CHANNELS 3 Xrotation Yrotation Zrotation
					End Site
					{
						OFFSET 0.00000 0.00000 2.95275
					}
				}
			}
		}
	}
	JOINT LeftUpLeg
	{
		OFFSET 3.76699 0.00000 0.00000
		CHANNELS 3 Xrotation Yrotation Zrotation
		JOINT LeftLeg
		{
			OFFSET 0.00000 -18.01768 0.00000
			CHANNELS 3 Xrotation Yrotation Zrotation
			JOINT LeftFoot
			{
				OFFSET 0.00000 -16.88108 0.00000
				CHANNELS 3 Xrotation Yrotation Zrotation
				JOINT LeftToeBase
				{
					OFFSET 0.00000 -1.49359 5.57418
					CHANNELS 3 Xrotation Yrotation Zrotation
					End Site
					{
						OFFSET 0.00000 0.00000 2.95275
					}
				}
			}
		}
	}
	JOINT Spine
	{
		OFFSET 0.00000 7.77970 0.00000
		CHANNELS 3 Xrotation Yrotation Zrotation
		JOINT RightShoulder
		{
			OFFSET 0.00000 10.94176 0.00000
			CHANNELS 3 Xrotation Yrotation Zrotation
			JOINT RightArm
			{
				OFFSET -7.70894 0.00000 0.00000
				CHANNELS 3 Xrotation Yrotation Zrotation
				JOINT RightForeArm
				{
					OFFSET -11.52135 0.00000 0.00000
					CHANNELS 3 Yrotation Zrotation Xrotation
					JOINT RightHand
					{
						OFFSET -10.17590 0.00000 0.00000
						CHANNELS 3 Xrotation Yrotation Zrotation
						End Site
						{
							OFFSET -3.93700 0.00000 0.00000
						}
						JOINT RightHandThumb1
						{
							OFFSET 0.00000 0.00000 0.00000
							CHANNELS 3 Xrotation Zrotation Yrotation
							End Site
							{
								OFFSET 0.00000 0.00000 3.93700
							}
						}
					}
				}
			}
		}
		JOINT LeftShoulder
		{
			OFFSET 0.00000 10.94176 0.00000
			CHANNELS 3 Xrotation Yrotation Zrotation
			JOINT LeftArm
			{
				OFFSET 7.70894 0.00000 0.00000
				CHANNELS 3 Xrotation Yrotation Zrotation
				JOINT LeftForeArm
				{
					OFFSET 11.52135 0.00000 0.00000
					CHANNELS 3 Yrotation Zrotation Xrotation
					JOINT LeftHand
					{
						OFFSET 10.17590 0.00000 0.00000
						CHANNELS 3 Xrotation Yrotation Zrotation
						End Site
						{
							OFFSET 3.93700 0.00000 0.00000
						}
						JOINT LeftHandThumb1
						{
							OFFSET 0.00000 0.00000 0.00000
							CHANNELS 3 Xrotation Zrotation Yrotation
							End Site
							{
								OFFSET 0.00000 0.00000 3.93700
							}
						}
					}
				}
			}
		}
		JOINT Head
		{
			OFFSET 0.00000 16.64604 0.00000
			CHANNELS 3 Xrotation Yrotation Zrotation
			End Site
			{
				OFFSET 0.00000 4.52755 0.00000
			}
		}
	}
}
MOTION
Frames:	23
Frame Time: 0.008333
-2.4830 37.0067 2.3989 1.5584 0.0809 -1.6065 3.9310 0.5869 -2.1609 -2.1951 0.0000 -0.0000 -5.8853 -17.9866 10.9134 9.7167 -0.0000 -0.0000 6.3903 6.8390 1.4228 -4.3408 0.0000 -0.0000 -10.4375 22.9427 -6.4011 14.1285 -0.0000 -0.0000 -0.8882 6.2550 1.3267 39.4440 -21.2717 2.6427 -34.7068 27.3531 80.5531 25.9855 0.0000 20.8693 2.9325 -11.6004 14.2921 33.1476 -0.0000 -26.2537 23.1102 4.2622 2.8906 -25.5338 29.7861 -85.1060 -9.2621 0.0000 -92.7956 3.1702 -4.1539 37.4031 32.8623 0.0000 24.3270 3.9977 -3.0278 -5.2298
-2.4898 37.0086 2.3831 1.6633 0.2295 -1.6376 3.8138 0.5688 -2.1116 -2.1695 0.0000 -0.0000 -5.8748 -18.1176 10.9141 9.7317 -0.0000 -0.0000 6.2921 6.9068 1.4665 -4.4552 0.0000 -0.0000 -10.3431 22.7741 -6.4795 14.2335 -0.0000 -0.0000 -0.9467 6.0852 1.3455 39.3015 -21.2078 2.5928 -34.6785 27.3739 80.5090 25.8090 -0.0000 22.2201 3.0319 -11.3464 15.0680 33.1476 -0.0000 -26.2537 23.0375 4.2746 2.8318 -25.7060 30.0490 -84.7380 -10.1498 0.0000 -92.5030 3.1587 -4.1268 37.4830 32.8623 0.0000 24.3270 4.0342 -2.9479 -5.3219
-2.5002 37.0113 2.3616 1.8257 0.3927 -1.6892 3.6164 0.5365 -2.0357 -2.1124 0.0000 -0.0000 -5.8689 -18.2343 10.9118 9.7121 -0.0000 -0.0000 6.1357 6.9283 1.5410 -4.5946 0.0000 -0.0000 -10.2344 22.6231 -6.5675 14.2928 -0.0000 -0.0000 -1.0787 5.9176 1.3686 39.1932 -21.1246 2.5807 -34.5721 27.3990 80.4115 25.7220 -0.0000 23.3053 3.1316 -11.3540 15.5309 33.1476 -0.0000 -26.2537 22.9161 4.2800 2.8224 -25.8014 30.3822 -84.4143 -11.1870 -0.0000 -92.2372 3.2227 -4.2184 37.4324 32.8623 0.0000 24.3270 4.1058 -2.8437 -5.3929
-2.5116 37.0144 2.3397 1.9830 0.5748 -1.7418 3.4215 0.4771 -1.9557 -2.0485 0.0000 -0.0000 -5.8600 -18.3604 10.9051 9.7143 -0.0000 -0.0000 5.9704 6.9340 1.6150 -4.7163 0.0000 -0.0000 -10.1206 22.4906 -6.6083 14.3199 -0.0000 -0.0000 -1.2060 5.7692 1.3975 39.1026 -21.0686 2.5457 -34.5826 27.2191 80.4229 25.4747 -0.0000 24.2897 3.3220 -11.3440 16.4409 33.1476 -0.0000 -26.2537 22.8251 4.2764 2.8543 -25.9769 30.6600 -84.0979 -12.1289 0.0000 -92.0104 3.1372 -4.2263 36.6386 32.8623 0.0000 24.3270 4.1993 -2.7653 -5.4562
-2.5203 37.0180 2.3210 2.1146 0.7459 -1.7849 3.2530 0.3826 -1.8915 -1.9808 0.0000 -0.0000 -5.8569 -18.4383 10.9255 9.7311 -0.0000 -0.0000 5.8341 7.0042 1.6774 -4.8273 0.0000 -0.0000 -10.0110 22.2840 -6.7143 14.3832 -0.0000 -0.0000 -1.3144 5.6537 1.4092 39.0772 -21.0099 2.5373 -34.6059 27.0533 80.4087 25.2188 0.0000 24.6608 3.3331 -11.4520 16.3481 33.1476 -0.0000 -26.2537 22.7529 4.2579 2.9222 -26.1119 30.8982 -83.8258 -13.2100 -0.0000 -91.9479 3.0633 -4.1330 36.5953 32.8623 0.0000 24.3270 4.3274 -2.7923 -5.4980
-2.5285 37.0213 2.3048 2.2268 0.9169 -1.8163 3.1121 0.2766 -1.8396 -1.9241 0.0000 -0.0000 -5.8556 -18.5042 10.9095 9.7404 -0.0000 -0.0000 5.7233 7.0655 1.7246 -4.9445 0.0000 -0.0000 -9.8735 22.0979 -6.8780 14.4145 -0.0000 -0.0000 -1.4016 5.5727 1.4180 39.1226 -20.9880 2.5570 -34.6979 26.8650 80.4378 24.9260 0.0000 24.9318 3.3900 -11.6006 16.4138 33.1476 -0.0000 -26.2537 22.6798 4.2254 2.9993 -26.2748 31.1092 -83.5600 -14.3339 0.0000 -91.8128 3.0197 -4.1858 35.8564 32.8623 0.0000 24.3270 4.4594 -2.7324 -5.5160
-2.5370 37.0240 2.2879 2.3407 1.1018 -1.8558 2.9776 0.1612 -1.7771 -1.8850 0.0000 -0.0000 -5.8512 -18.5909 10.9160 9.7757 -0.0000 -0.0000 5.5955 7.0737 1.7820 -5.0331 0.0000 -0.0000 -9.7900 21.9450 -6.9178 14.5005 -0.0000 -0.0000 -1.4775 5.5175 1.4322 39.1587 -21.0056 2.5965 -34.7017 26.7591 80.4287 24.7175 0.0000 24.7364 3.3669 -11.9827 15.8208 33.1476 -0.0000 -26.2537 22.5438 4.1816 3.1100 -26.3009 31.2217 -83.3690 -15.6185 -0.0000 -91.7367 2.9953 -4.3170 34.8047 32.8623 0.0000 24.3270 4.5668 -2.5976 -5.4748
-2.5451 37.0272 2.2725 2.4324 1.3173 -1.8675 2.8799 0.0021 -1.7407 -1.8592 0.0000 -0.0000 -5.8481 -18.6494 10.8834 9.7436 -0.0000 -0.0000 5.4994 7.0451 1.8086 -5.1407 0.0000 -0.0000 -9.6474 21.8237 -7.0693 14.5455 -0.0000 -0.0000 -1.5277 5.4701 1.3951 39.2110 -21.0077 2.6443 -34.8003 26.4527 80.4813 24.3560 0.0000 24.4836 3.3222 -12.2448 15.3071 33.1476 -0.0000 -26.2537 22.4626 4.1197 3.2301 -26.3693 31.3765 -83.1940 -17.0775 0.0000 -91.7324 3.0310 -4.5487 33.7297 32.8623 0.0000 24.3270 4.6822 -2.5899 -5.4018
-2.5556 37.0306 2.2556 2.5103 1.5442 -1.8863 2.8081 -0.1453 -1.6932 -1.8598 0.0000 -0.0000 -5.8322 -18.7358 10.8376 9.7645 -0.0000 -0.0000 5.4019 6.9368 1.8541 -5.2177 0.0000 -0.0000 -9.5555 21.7438 -7.1079 14.6096 -0.0000 -0.0000 -1.5507 5.4210 1.3696 39.2570 -21.0436 2.7102 -34.8745 26.2173 80.5195 24.0542 0.0000 23.8277 3.1945 -12.5724 14.3810 33.1476 -0.0000 -26.2537 22.3180 4.0377 3.3196 -26.3187 31.4657 -83.0238 -18.8517 0.0000 -91.9607 3.1367 -4.9113 32.6230 32.8623 0.0000 24.3270 4.7893 -2.5830 -5.3317
-2.5697 37.0334 2.2328 2.5974 1.8454 -1.9250 2.7305 -0.4040 -1.6124 -1.8670 0.0000 -0.0000 -5.8071 -18.8053 10.7850 9.7331 -0.0000 -0.0000 5.2224 6.8071 1.9402 -5.1744 0.0000 -0.0000 -9.5335 21.5789 -7.1917 14.6995 -0.0000 -0.0000 -1.5487 5.2929 1.3452 39.3363 -21.0349 2.7893 -34.9590 25.9340 80.5375 23.8055 0.0000 23.1645 3.0524 -12.9189 13.4153 33.1476 -0.0000 -26.2537 22.0905 3.9654 3.4056 -26.1349 31.7098 -82.9373 -21.0057 -0.0000 -92.1044 3.3492 -5.4246 31.7594 32.8623 0.0000 24.3270 4.8329 -2.5298 -5.2165
-2.5823 37.0366 2.2144 2.6734 2.0891 -1.9482 2.6591 -0.5718 -1.5602 -1.8642 0.0000 -0.0000 -5.7948 -18.8866 10.7542 9.7274 -0.0000 -0.0000 5.0787 6.7238 1.9985 -5.1652 0.0000 -0.0000 -9.4648 21.4433 -7.2475 14.6754 -0.0000 -0.0000 -1.5485 5.2273 1.3007 39.3593 -21.0309 2.8625 -34.9712 25.6019 80.5463 23.6068 0.0000 22.3049 2.9830 -13.3513 12.7165 33.1476 -0.0000 -26.2537 21.9395 3.9012 3.4663 -25.9972 32.1509 -82.9017 -23.4244 0.0000 -92.0149 3.5602 -5.9507 30.9698 32.8623 0.0000 24.3270 4.9000 -2.4597 -5.0802
-2.5898 37.0392 2.1983 2.7312 2.3540 -1.9587 2.6262 -0.8189 -1.5280 -1.8932 0.0000 -0.0000 -5.7664 -18.9113 10.7612 9.7150 -0.0000 -0.0000 4.9682 6.5689 2.0359 -5.1803 0.0000 -0.0000 -9.4175 21.4088 -7.4197 14.8524 -0.0000 -0.0000 -1.5252 5.1630 1.2624 39.4100 -21.0588 2.9333 -35.0264 25.2573 80.5869 23.3812 -0.0000 21.5168 2.8361 -13.6154 11.8843 33.1476 -0.0000 -26.2537 21.6584 3.7923 3.4619 -25.6154 32.3656 -82.8576 -26.2523 -0.0000 -91.9851 3.8560 -6.6173 30.3229 32.8623 0.0000 24.3270 4.9468 -2.4140 -4.9498
-2.6012 37.0414 2.1836 2.7878 2.5547 -1.9664 2.5848 -0.9831 -1.4925 -1.9115 0.0000 -0.0000 -5.7628 -18.9583 10.7177 9.7852 -0.0000 -0.0000 4.8759 6.4956 2.0684 -5.2141 0.0000 -0.0000 -9.3215 21.2962 -7.4298 14.8673 -0.0000 -0.0000 -1.5016 5.1858 1.1937 39.4211 -21.0895 3.0310 -35.0343 24.9000 80.6166 23.1827 0.0000 20.7377 2.6562 -13.9527 10.8909 33.1476 -0.0000 -26.2537 21.5442 3.6631 3.4546 -25.3340 32.4891 -82.8165 -29.3839 0.0000 -92.0673 4.3154 -7.5314 29.9303 32.8623 0.0000 24.3270 4.9886 -2.4265 -4.8025
-2.6119 37.0427 2.1717 2.8132 2.7473 -1.9729 2.5841 -1.1476 -1.4615 -1.9458 0.0000 -0.0000 -5.7440 -18.9893 10.7142 9.7656 -0.0000 -0.0000 4.8249 6.2907 2.1046 -5.2391 0.0000 -0.0000 -9.2895 21.3442 -7.4588 14.9290 -0.0000 -0.0000 -1.4343 5.2048 1.1356 39.4046 -21.1264 3.1081 -34.9894 24.5941 80.6416 23.0796 0.0000 19.8666 2.4518 -14.2428 9.8725 33.1476 -0.0000 -26.2537 21.3669 3.5643 3.4168 -24.9916 32.5698 -82.7791 -32.6684 0.0000 -91.9813 4.8054 -8.6440 29.2206 32.8623 0.0000 24.3270 5.0041 -2.3596 -4.6558
-2.6204 37.0442 2.1549 2.8629 2.9507 -1.9617 2.5478 -1.3414 -1.4542 -1.9672 0.0000 -0.0000 -5.7488 -18.9936 10.7031 9.8013 -0.0000 -0.0000 4.7287 6.2367 2.1146 -5.2571 0.0000 -0.0000 -9.2083 21.2112 -7.5231 14.9722 -0.0000 -0.0000 -1.3868 5.2166 1.0564 39.4645 -21.1666 3.1918 -35.1127 24.1244 80.7108 22.9143 -0.0000 19.0988 2.3622 -14.3830 9.4290 33.1476 -0.0000 -26.2537 21.1726 3.4289 3.3786 -24.5507 32.7830 -82.7651 -36.2925 -0.0000 -91.5569 4.3902 -8.1478 28.4447 32.8623 0.0000 24.3270 5.0230 -2.3826 -4.5027
-2.6264 37.0444 2.1397 2.8958 3.1584 -1.9613 2.5394 -1.5146 -1.4404 -2.0061 0.0000 -0.0000 -5.7319 -19.0265 10.6937 9.7587 -0.0000 -0.0000 4.6550 6.0329 2.1377 -5.2640 0.0000 -0.0000 -9.1692 21.2198 -7.4962 14.9351 -0.0000 -0.0000 -1.3186 5.2066 1.0137 39.4611 -21.2310 3.2180 -35.1473 23.7550 80.7800 22.8292 0.0000 18.5416 2.2033 -14.5857 8.6865 33.1476 -0.0000 -26.2537 20.9584 3.2815 3.2903 -24.0250 32.7926 -82.7140 -39.9819 -0.0000 -90.8008 4.3964 -8.6520 27.0706 32.8623 0.0000 24.3270 4.9992 -2.4337 -4.4599
-2.6340 37.0446 2.1262 2.9260 3.3209 -1.9393 2.5127 -1.6769 -1.4435 -2.0076 0.0000 -0.0000 -5.7576 -19.0238 10.6327 9.7588 -0.0000 -0.0000 4.5786 6.0275 2.1348 -5.2567 0.0000 -0.0000 -9.1101 21.0831 -7.5999 14.9762 -0.0000 -0.0000 -1.2573 5.2583 0.9311 39.5072 -21.3002 3.2868 -35.2075 23.4633 80.8431 22.7986 0.0000 18.0130 2.0098 -14.6914 7.8779 33.1476 -0.0000 -26.2537 20.7949 3.1345 3.2108 -23.5993 32.9312 -82.6484 -43.6935 0.0000 -89.8511 4.3582 -9.3358 25.1642 32.8623 0.0000 24.3270 5.0187 -2.4582 -4.3800
-2.6392 37.0442 2.1174 2.9352 3.4345 -1.9182 2.5191 -1.7678 -1.4593 -2.0319 0.0000 -0.0000 -5.7672 -19.0167 10.6423 9.8216 -0.0000 -0.0000 4.5520 5.9667 2.1258 -5.2737 0.0000 -0.0000 -9.0673 21.0409 -7.6185 15.0015 -0.0000 -0.0000 -1.1862 5.3521 0.8590 39.5141 -21.3725 3.3103 -35.2097 23.1900 80.9006 22.8112 0.0000 17.7813 1.9978 -14.6390 7.8586 33.1476 -0.0000 -26.2537 20.6796 2.9891 3.1003 -23.2161 32.9808 -82.5441 -47.5313 0.0000 -88.9335 4.2324 -9.8611 23.3701 32.8623 0.0000 24.3270 5.0481 -2.5213 -4.3229
-2.6435 37.0433 2.1100 2.9217 3.5524 -1.8961 2.5452 -1.8754 -1.4728 -2.0468 0.0000 -0.0000 -5.7874 -19.0130 10.6352 9.8114 -0.0000 -0.0000 4.5374 5.8988 2.1163 -5.2647 0.0000 -0.0000 -9.0546 20.9954 -7.5891 14.9981 -0.0000 -0.0000 -1.0842 5.4431 0.7882 39.5073 -21.4489 3.3203 -35.2131 22.9554 80.9498 22.8472 0.0000 17.4170 1.8482 -14.6842 7.2547 33.1476 -0.0000 -26.2537 20.5040 2.8418 2.9855 -22.8464 32.9866 -82.3986 -51.4412 0.0000 -88.1314 4.2851 -11.0053 21.4301 32.8623 0.0000 24.3270 5.0745 -2.5934 -4.2839
-2.6469 37.0424 2.1027 2.9136 3.6734 -1.8774 2.5728 -1.9744 -1.4822 -2.0728 0.0000 -0.0000 -5.7927 -19.0287 10.6245 9.7543 -0.0000 -0.0000 4.5273 5.8342 2.1115 -5.2814 0.0000 -0.0000 -9.0084 20.9476 -7.6356 14.9606 -0.0000 -0.0000 -0.9969 5.5021 0.7257 39.5301 -21.5148 3.3092 -35.1806 22.9086 80.9658 23.0086 -0.0000 17.1236 1.8134 -14.8720 7.0324 33.1476 -0.0000 -26.2537 20.3883 2.7013 2.8611 -22.4881 32.9478 -82.2290 -55.5415 -0.0000 -87.3079 4.0316 -11.1620 20.0056 32.8623 0.0000 24.3270 5.1166 -2.6729 -4.2811
-2.6474 37.0412 2.0923 2.9131 3.8277 -1.8659 2.5885 -2.0885 -1.4891 -2.0883 0.0000 -0.0000 -5.8099 -19.0655 10.6255 9.7470 -0.0000 -0.0000 4.4856 5.7456 2.1132 -5.2581 0.0000 -0.0000 -8.9962 20.8784 -7.6554 14.9488 -0.0000 -0.0000 -0.9176 5.4887 0.6921 39.5110 -21.5924 3.2207 -35.2644 22.8448 81.0548 22.9753 0.0000 17.1528 1.9108 -14.7999 7.4409 33.1476 -0.0000 -26.2537 20.3054 2.5669 2.6931 -22.1605 32.8300 -81.9662 -59.7653 -0.0000 -86.3955 3.7898 -11.5594 18.2924 32.8623 0.0000 24.3270 5.1735 -2.7274 -4.3428
-2.6495 37.0406 2.0851 2.8991 3.9352 -1.8414 2.6157 -2.1553 -1.5073 -2.1051 0.0000 -0.0000 -5.8213 -19.0865 10.5914 9.7497 -0.0000 -0.0000 4.4732 5.7080 2.1027 -5.2488 0.0000 -0.0000 -8.9773 20.8066 -7.6985 15.0055 -0.0000 -0.0000 -0.8334 5.5226 0.6122 39.5135 -21.6356 3.1715 -35.2884 22.9043 81.0809 23.0648 0.0000 17.1487 1.9891 -14.8660 7.7091 33.1476 -0.0000 -26.2537 20.3778 2.5304 2.6354 -22.0679 32.6232 -81.7686 -63.9869 -0.0000 -86.0246 3.6692 -11.6641 17.5985 32.8623 0.0000 24.3270 5.2540 -2.7824 -4.3145
-2.6524 37.0406 2.0795 2.8834 4.0095 -1.8237 2.6347 -2.1909 -1.5172 -2.1052 0.0000 -0.0000 -5.8320 -19.1193 10.5783 9.7196 -0.0000 -0.0000 4.4673 5.7111 2.0970 -5.2417 0.0000 -0.0000 -8.9461 20.7281 -7.7447 14.9611 -0.0000 -0.0000 -0.7553 5.5703 0.5433 39.5394 -21.6874 3.1296 -35.3514 23.0292 81.0974 23.1589 -0.0000 17.0966 2.0140 -14.7627 7.8573 33.1476 -0.0000 -26.2537 20.4882 2.5115 2.5670 -22.0212 32.3411 -81.5243 -68.2180 -0.0000 -85.5458 3.3929 -11.7120 16.2812 32.8623 0.0000 24.3270 5.3339 -2.8572 -4.3489
